<svg xmlns="http://www.w3.org/2000/svg" viewBox="0 0 100 100" width="100" height="100" role="img" aria-label="MoneyPlanet">
  <defs>
    <linearGradient id="bg" x1="0" y1="0" x2="1" y2="1">
      <stop offset="0%" stop-color="#16C98A"/>
      <stop offset="100%" stop-color="#0A7A56"/>
    </linearGradient>
  </defs>
  <rect width="100" height="100" rx="22.5" fill="url(#bg)"/>
  <circle cx="50" cy="64" r="25.5" fill="none" stroke="#FFFFFF" stroke-width="5.2"/>
  <circle cx="50" cy="64" r="19.5" fill="none" stroke="#FFFFFF" stroke-width="1.6" opacity="0.45"/>
  <text x="50" y="65.5" text-anchor="middle" dominant-baseline="central"
    font-family="'Plus Jakarta Sans', 'Montserrat', Arial, sans-serif"
    font-weight="800" font-size="30" fill="#FFFFFF">₹</text>
  <path d="M50 42 V 26" fill="none" stroke="#FFFFFF" stroke-width="3.4" stroke-linecap="round"/>
  <path d="M49.4 33.5 C 41.6 33.5 36.2 29.1 34.3 21 C 42.1 21 47.5 25.4 49.4 33.5 Z" fill="#FFFFFF"/>
  <path d="M50.6 33.5 C 58.4 33.5 63.8 29.1 65.7 21 C 57.9 21 52.5 25.4 50.6 33.5 Z" fill="#FFFFFF"/>
  <g fill="none" stroke="#FFFFFF" stroke-width="1.5" stroke-linecap="round" opacity="0.42">
    <path d="M46.5 30.5 C 43.5 28 40.5 25.8 37.5 24.5"/>
    <path d="M53.5 30.5 C 56.5 28 59.5 25.8 62.5 24.5"/>
  </g>
</svg>
